<?xml version="1.0"?>
<svg xmlns="http://www.w3.org/2000/svg" viewBox="0 0 512 512" width="512" height="512" style="fill: #ffffff;"><g id="outline">
<path d="M462,144H384V112h48v4a12.013,12.013,0,0,0,12,12h44a8,8,0,0,0,6.656-12.438L481.231,95.425l13.924-27.847A8,8,0,0,0,488,56H448V44a12.013,12.013,0,0,0-12-12H376a8,8,0,0,0-8,8V144.063A34.041,34.041,0,0,0,336,178V280H320V266a17.906,17.906,0,0,0-4.568-11.94,23.94,23.94,0,0,0,2.216-24.414,7.872,7.872,0,0,0,1.886-8.336L285.79,126.826a34,34,0,0,0-3.1-6.428A23.475,23.475,0,0,0,260.4,104c-.256,0-.508.014-.761.022A49.645,49.645,0,0,1,248,72V50a18.021,18.021,0,0,0-18-18H194a18.021,18.021,0,0,0-18,18V64H152a8,8,0,0,0,0,16h21.754l-5.515,22.06A8,8,0,0,0,176,112h8.053a25.682,25.682,0,0,0,25.6,24h9.465a34.411,34.411,0,0,0,1.932,13.933l3.6,10.067H208a24.028,24.028,0,0,0-24,24v11.056L174.111,200h-8.818A28.034,28.034,0,0,0,140,184H104a8,8,0,0,0-8,8v40a8,8,0,0,0,8,8h28.28c-6.92,15.248-15.262,33.621-20.943,46.131A16.878,16.878,0,0,1,96,296a8,8,0,0,0-8,8v24H80a64.072,64.072,0,0,0-64,64,8,8,0,0,0,8,8H42.33A56,56,0,1,0,152,416h21.754l4,5A8,8,0,0,0,184,424H304a8.005,8.005,0,0,0,4.438-1.344L330.422,408h14.156a56,56,0,1,0,110.844,0H488a8,8,0,0,0,7.822-9.677,150.241,150.241,0,0,0-39.575-73.5l11.331-5.666A8,8,0,0,0,472,312V296h16a8,8,0,0,0,8-8V178A34.038,34.038,0,0,0,462,144Zm13.056-72L464.845,92.422a8,8,0,0,0,.5,8.016L473.052,112H448V72ZM432,64V96H384V48h48ZM352,178a18.021,18.021,0,0,1,18-18h92a18.021,18.021,0,0,1,18,18v14H352ZM471.4,375a177.206,177.206,0,0,0-125.256-62.7c-.684-.191-7.952-.3-10.146-.3a47.888,47.888,0,0,0-35.978,16.275,36.487,36.487,0,0,0-27.561-19.516l-.583-.077A18.4,18.4,0,0,1,256.845,296H349.46A133.527,133.527,0,0,1,471.4,375ZM352,328.814a160.871,160.871,0,0,1,40,9.265V344H352ZM300.648,216h-39.01l-2.857-8H280a23.86,23.86,0,0,0,15.7-5.85ZM256,232h40a8,8,0,0,1,0,16H240a8,8,0,0,0-7.892,9.315L246.557,344H230.678l-14.6-80.4c-.008-.046-.017-.093-.026-.14A26.3,26.3,0,0,1,241.846,232ZM216,368a8.009,8.009,0,0,1,8-8h24v16H216Zm47.988-16.235c0-.127-.009-.254-.019-.382-.013-.164-.032-.326-.054-.488-.01-.07-.012-.141-.023-.21L258.977,321.2a34.085,34.085,0,0,0,10.792,3.344l.585.077A20.354,20.354,0,0,1,288,344.69v11.08A20.253,20.253,0,0,1,267.77,376H264V352C264,351.92,263.99,351.844,263.988,351.765ZM252.11,280l-2.667-16H302a2,2,0,0,1,2,2v14ZM267.5,125.356l9.9,34.644h-15.36L253.3,129.412A7.383,7.383,0,0,1,260.4,120,7.413,7.413,0,0,1,267.5,125.356ZM241.636,160l-5.522-15.449a18.027,18.027,0,0,1,.393-13.384c.193-.448.405-.884.629-1.311a23.855,23.855,0,0,0,.775,3.952L245.394,160ZM192,50a2,2,0,0,1,2-2h36a2,2,0,0,1,2,2V64H192Zm8,60.35V104a8,8,0,0,0-8-8h-5.754l4-16h42.233a65.444,65.444,0,0,0,9.041,26.138A34.42,34.42,0,0,0,224.38,120H209.65A9.661,9.661,0,0,1,200,110.35ZM200,184a8.009,8.009,0,0,1,8-8h27.975l.025,0,.046,0H280a8,8,0,1,1,0,16H200Zm-24,32a7.994,7.994,0,0,0,3.578-.845L193.889,208h47.9l2.856,8h-2.8a42.3,42.3,0,0,0-41.5,50.529l14.4,79.326A24.036,24.036,0,0,0,200,368v8h-4l-20.449-27.27a71.912,71.912,0,0,1-10.673-65.945l14.659-43.878A20.964,20.964,0,0,0,172.919,216Zm-64-16h28a12,12,0,0,1,0,24H112ZM96,456a39.989,39.989,0,0,1-36.655-56H78.131A23.994,23.994,0,1,0,120,416h16A40.045,40.045,0,0,1,96,456Zm0-48a8,8,0,1,1-8,8A8.009,8.009,0,0,1,96,408Zm19.313-8-13.656-13.657A8,8,0,0,0,96,384H32.667A48.078,48.078,0,0,1,80,344h36.155l44.8,56Zm186.265,8H187.845l-61.6-77A8,8,0,0,0,120,328H104V311.007a32.918,32.918,0,0,0,21.9-18.259c6.83-15.039,17.514-38.57,24.937-54.933a28.151,28.151,0,0,0,11.878-9.479,4.944,4.944,0,0,1,1.643,5.5L149.7,277.714A87.916,87.916,0,0,0,162.75,358.33L185.6,388.8A8,8,0,0,0,192,392h75.77a36.111,36.111,0,0,0,25.381-10.408,48.323,48.323,0,0,0,18.454,19.723ZM440,416a40,40,0,1,1-79.2-8h16.572a24,24,0,1,0,45.248,0H439.2A40.217,40.217,0,0,1,440,416Zm-32,0a8,8,0,1,1-8-8A8.009,8.009,0,0,1,408,416Zm-72-24a32,32,0,0,1,0-64v20a12.013,12.013,0,0,0,12,12h48a12.013,12.013,0,0,0,12-12v-2.985A161,161,0,0,1,464.508,392Zm120-84.944-11.578,5.789a8.041,8.041,0,0,0-.814.473l-.048-.04A149.278,149.278,0,0,0,416.743,296H456ZM352,280V208H480v72Z"/><path d="M440,224H392a8,8,0,0,0,0,16h48a8,8,0,0,0,0-16Z"/><path d="M264,80a8,8,0,0,0,8,8h24a8,8,0,0,0,0-16H272A8,8,0,0,0,264,80Z"/><path d="M320,40H280a8,8,0,0,0,0,16h40a8,8,0,0,0,0-16Z"/><path d="M296,112a8,8,0,0,0,8,8h32a8,8,0,0,0,0-16H304A8,8,0,0,0,296,112Z"/></g></svg>
